<svg width="80" height="80" fill="none" xmlns="http://www.w3.org/2000/svg"><path clip-rule="evenodd" d="M20.73 47.709c6.384 0 11.562 5.176 11.562 11.562 0 6.385-5.178 11.563-11.563 11.563-6.386 0-11.562-5.178-11.562-11.563 0-6.385 5.177-11.563 11.562-11.563Zm38.54 0c6.386 0 11.563 5.176 11.563 11.562 0 6.385-5.177 11.563-11.562 11.563-6.386 0-11.563-5.178-11.563-11.563 0-6.385 5.178-11.563 11.563-11.563ZM40 9.166c6.385 0 11.563 5.177 11.563 11.563 0 6.385-5.178 11.563-11.563 11.563-6.386 0-11.563-5.178-11.563-11.563 0-6.385 5.178-11.563 11.563-11.563Z" stroke="#4B23EB" stroke-width="2.2" stroke-linecap="round" stroke-linejoin="round"/></svg>