<svg width="20" height="20" fill="none" xmlns="http://www.w3.org/2000/svg"><path d="M7.853 7.852C9.373 6.332 9.65 4.055 9.7.004A10 10 0 0 0 .004 9.7c4.051-.05 6.329-.328 7.849-1.848Z" fill="#fff"/><path d="M.004 9.7a10.182 10.182 0 0 0 0 .6c4.052.05 6.329.327 7.849 1.847 1.52 1.52 1.797 3.797 1.847 7.849a10.293 10.293 0 0 0 .6 0c.05-4.051.327-6.329 1.847-7.849 1.52-1.52 3.797-1.797 7.849-1.847a10.297 10.297 0 0 0 0-.6c-4.051-.05-6.329-.327-7.849-1.847-1.52-1.52-1.797-3.797-1.847-7.849a10.19 10.19 0 0 0-.6 0c-.05 4.052-.327 6.329-1.847 7.849C6.333 9.373 4.056 9.65.004 9.7Z" fill="#31303B"/><path d="M10.3.004c.05 4.051.327 6.328 1.847 7.848 1.52 1.52 3.797 1.797 7.849 1.848A10 10 0 0 0 10.3.004Z" fill="#fff"/><path fill-rule="evenodd" clip-rule="evenodd" d="M9.7 0v.004a10.187 10.187 0 0 1 .6 0V0h-.6ZM0 9.7h.004C.001 9.8 0 9.9 0 10v-.3Zm.004.6C.001 10.2 0 10.1 0 10v.3h.004ZM9.7 19.996V20h.6v-.004a10.297 10.297 0 0 1-.6 0ZM20 10.3h-.004c.003-.1.004-.2.004-.3v.3Zm0-.6v.3c0-.1-.002-.2-.004-.3H20Z" fill="#31303B"/><path d="M.004 10.3c.156 5.284 4.412 9.54 9.696 9.696-.05-4.051-.327-6.329-1.847-7.849-1.52-1.52-3.798-1.797-7.849-1.847Zm12.143 1.847c-1.52 1.52-1.797 3.798-1.847 7.849a10 10 0 0 0 9.696-9.696c-4.051.05-6.329.327-7.849 1.847Z" fill="#fff"/></svg>