<svg width="64" height="64" fill="none" xmlns="http://www.w3.org/2000/svg"><path d="M32 41.833c5.431 0 9.834-4.403 9.834-9.833 0-5.431-4.403-9.834-9.834-9.834-5.43 0-9.833 4.403-9.833 9.834 0 5.43 4.403 9.833 9.834 9.833Z" stroke="#fff" stroke-width="2.4" stroke-linecap="square"/><path d="M50.144 49.908 48.976 41.8l7.605-3.043V25.241l-7.603-3.04 1.168-8.11L38.44 7.333l-6.438 5.066-6.44-5.066-11.705 6.758 1.168 8.108-7.606 3.042v13.517l7.608 3.044-1.167 8.106 11.706 6.758 6.436-5.063 6.436 5.063 11.706-6.758Z" stroke="#fff" stroke-width="2.4" stroke-linecap="square"/></svg>