<svg width="222" height="36" fill="none" xmlns="http://www.w3.org/2000/svg"><path d="M24.883 5.802h5.367V.435h-5.367v5.367Z" fill="#fff"/><path opacity=".5" d="M5.367 21.415h5.367v-5.367H5.367v5.367Zm19.516-10.734h5.367V5.802h-5.367v4.88Z" fill="#fff"/><path opacity=".2" d="M24.883 16.048h5.367v-5.367h-5.367v5.367Z" fill="#fff"/><path opacity=".5" d="M19.516 5.802h5.368V.435h-5.368v5.367Z" fill="#fff"/><path opacity=".2" d="M14.15 5.802h5.366V.435H14.15v5.367Z" fill="#fff"/><path d="M0 21.415h5.367v-5.367H0v5.367Z" fill="#fff"/><path opacity=".32" d="M10.734 21.415h5.367v-5.367h-5.367v5.367Z" fill="#fff"/><path opacity=".2" d="M5.367 26.782h5.367v-5.367H5.367v5.367Z" fill="#fff"/><path opacity=".5" d="M0 26.782h5.367v-5.367H0v5.367Z" fill="#fff"/><path opacity=".2" d="M0 32.15h5.367v-5.368H0v5.367Z" fill="#fff"/><path d="m50.509 9.919-4.884-5.306v9.484h-2.689V.435h2.056l5.556 6.197L56.025.435h2.036v13.662h-2.688V4.652L50.509 9.92Zm20.238 1.861v2.317H60.013V.435h10.714v2.317h-8.025v3.326h7.887v2.297h-7.887v3.405h8.045Zm13.662-6.375c0 1.808-.397 3.148-1.19 4.019-.78.858-1.977 1.287-3.59 1.287h-4.72v3.386H72.21V.435h7.378c1.705 0 2.935.383 3.689 1.148.754.766 1.13 2.04 1.13 3.822Zm-5.276-2.653h-4.225v5.642h4.264c.86 0 1.488-.224 1.884-.673.41-.449.616-1.208.616-2.277 0-1.056-.179-1.768-.536-2.138-.357-.37-1.025-.554-2.003-.554Zm8.92-2.317v9.306L95.645.435h1.937v13.662h-2.688V4.87l-7.651 9.227h-1.858V.435h2.668Zm25.631 11.279v5.798h-2.538v-3.376h-10.031v3.376h-2.557v-5.798h1.523a7.726 7.726 0 0 0 1.092-2.9c.156-1.019.235-2.76.235-5.222V.435h10.499v11.279h1.777Zm-9.798-7.427c0 3.561-.371 6.037-1.112 7.427h6.459V2.758h-5.347v1.53ZM117.328.435v9.306L124.92.435h1.937v13.662h-2.689V4.87l-7.651 9.227h-1.858V.435h2.669Zm10.017 13.662L133.576.435h2.237l6.17 13.662h-3.035l-.959-2.317h-6.69l-.978 2.317h-2.976Zm7.329-10.256-2.496 5.9h4.952l-2.456-5.9ZM145.17.435v5.643h7.286V.435h2.7v13.662h-2.7V8.493h-7.286v5.604h-2.7V.435h2.7ZM41.96 32.15l6.23-13.662h2.237l6.17 13.661h-3.035l-.958-2.316h-6.69l-.978 2.316H41.96Zm7.33-10.257-2.497 5.9h4.952l-2.456-5.9Zm17.124 3.168v.178c1.913.251 2.87 1.267 2.87 3.05 0 1.333-.386 2.31-1.156 2.93-.77.62-1.947.93-3.528.93h-7.514V18.488h7.235c1.621 0 2.79.29 3.508.871.717.568 1.076 1.518 1.076 2.851 0 .752-.226 1.373-.677 1.861-.44.489-1.044.819-1.814.99ZM64.12 26.27h-4.325v3.564h4.365c.825 0 1.429-.132 1.814-.396.399-.277.598-.74.598-1.386 0-.686-.18-1.155-.538-1.406-.346-.25-.983-.376-1.914-.376Zm-.239-5.465h-4.086v3.445h4.126c.77 0 1.342-.138 1.714-.415.372-.278.558-.74.558-1.386 0-.647-.166-1.083-.498-1.307-.332-.224-.937-.337-1.814-.337Zm18.576-2.317v2.415h-5.23V32.15h-2.714V20.903h-5.23v-2.415h13.174Zm10.681 13.815c-.844.223-1.884.334-3.118.334-1.235 0-2.28-.111-3.138-.334a5.296 5.296 0 0 1-2.183-1.14c-.61-.537-1.06-1.257-1.345-2.161-.273-.918-.409-2.057-.409-3.42 0-1.402.149-2.568.448-3.498.299-.943.76-1.67 1.384-2.181a5.562 5.562 0 0 1 2.183-1.1c.832-.21 1.851-.315 3.06-.315 1.195 0 2.202.105 3.02.314.832.21 1.566.577 2.203 1.1.637.512 1.105 1.239 1.403 2.182.3.93.448 2.096.448 3.498 0 1.363-.142 2.502-.428 3.42-.286.904-.734 1.624-1.345 2.161a5.295 5.295 0 0 1-2.183 1.14Zm-5.107-2.181c.507.105 1.17.157 1.989.157.819 0 1.474-.052 1.968-.157a3.18 3.18 0 0 0 1.326-.668c.403-.328.682-.806.838-1.435.168-.629.253-1.441.253-2.437 0-1.035-.085-1.867-.253-2.496-.156-.642-.436-1.12-.838-1.434a3.145 3.145 0 0 0-1.345-.649c-.481-.105-1.13-.157-1.95-.157-.83 0-1.494.052-1.988.157a2.96 2.96 0 0 0-1.325.63c-.403.327-.688.811-.858 1.453-.155.63-.233 1.461-.233 2.496 0 1.009.078 1.828.234 2.457.169.615.448 1.087.838 1.415.403.327.851.55 1.344.668Zm18.1-2.15-4.884-5.307v9.484h-2.689V18.488h2.056l5.556 6.197 5.477-6.197h2.037v13.661h-2.69v-9.444l-4.863 5.267Zm8.041 4.178 6.23-13.662h2.236l6.171 13.661h-3.035l-.959-2.316h-6.689l-.979 2.316h-2.975Zm7.328-10.257-2.496 5.9h4.952l-2.456-5.9Zm18.043-3.405v2.415h-5.23V32.15h-2.715V20.903h-5.229v-2.415h13.174Zm3.645 0v9.306l7.591-9.306h1.938v13.661h-2.689v-9.226l-7.651 9.226h-1.858V18.488h2.669Zm23.19 10.022c0 2.752-2.043 4.127-6.127 4.127-2.128 0-3.726-.393-4.797-1.179-1.07-.8-1.658-2.142-1.762-4.028h2.702c.104 1.14.463 1.9 1.076 2.28.614.379 1.528.569 2.741.569 1.227 0 2.108-.157 2.643-.472.549-.327.823-.825.823-1.493 0-.63-.17-1.081-.509-1.356-.327-.288-.966-.433-1.919-.433h-2.016v-2.161h1.938c.822 0 1.377-.158 1.664-.472.3-.328.45-.747.45-1.258 0-1.192-1.038-1.788-3.113-1.788-1.122 0-1.99.197-2.603.59-.614.38-.914 1.113-.901 2.2h-2.662c-.04-1.82.482-3.13 1.565-3.93 1.097-.812 2.637-1.218 4.621-1.218 1.918 0 3.367.34 4.346 1.022.979.668 1.468 1.637 1.468 2.908 0 .747-.222 1.363-.665 1.848-.431.471-1.018.799-1.762.982v.157c1.866.262 2.799 1.297 2.799 3.105Zm0 3.64 6.23-13.662h2.237l6.17 13.661h-3.035l-.959-2.316h-6.689l-.978 2.316h-2.976Zm7.329-10.257-2.497 5.9h4.953l-2.456-5.9Zm10.53-3.405v11.279h6.492v-11.28h2.732v11.28h2.192v5.798h-2.613v-3.376h-11.537V18.488h2.734Zm15.06 0v9.306l7.592-9.306h1.937v13.661h-2.689v-9.226l-7.65 9.226h-1.859V18.488h2.669ZM222 32.15h-2.669v-4.218h-3.858l-2.144 4.217h-3.039l2.591-4.514c-1.701-.634-2.552-2.145-2.552-4.534 0-1.65.39-2.831 1.169-3.544.78-.713 2.046-1.07 3.799-1.07H222V32.15Zm-8.982-9.01c0 .951.188 1.604.565 1.96.376.344 1.02.515 1.929.515h3.819v-4.81h-3.78c-.962 0-1.624.164-1.988.494-.364.317-.545.93-.545 1.842ZM0 .435h10.734v2.44H0zM30.251 32.15H16.102v-2.44h14.149z" fill="#fff"/><path fill="#fff" d="M0 1.898h2.44v8.782H0zm30.251 28.787h-2.927v-9.27h2.927z"/></svg>