<svg width="20" height="20" fill="none" xmlns="http://www.w3.org/2000/svg"><path d="M7.805 8.902a8.796 8.796 0 0 0 3.293 3.293l.737-1.032a.833.833 0 0 1 1.078-.247 9.518 9.518 0 0 0 3.82 1.137.833.833 0 0 1 .767.83v3.72a.833.833 0 0 1-.748.829c-.442.045-.887.068-1.335.068C8.283 17.5 2.5 11.717 2.5 4.583c0-.448.023-.893.068-1.335a.833.833 0 0 1 .83-.748h3.718c.435 0 .797.334.83.768a9.518 9.518 0 0 0 1.138 3.819.833.833 0 0 1-.247 1.078l-1.032.737Zm-2.101-.548 1.583-1.13a11.174 11.174 0 0 1-.914-3.057H4.174c-.005.138-.007.277-.007.416 0 6.213 5.037 11.25 11.25 11.25.139 0 .278-.002.416-.007v-2.199a11.175 11.175 0 0 1-3.056-.914l-1.131 1.584c-.458-.178-.9-.387-1.323-.625l-.049-.028a10.463 10.463 0 0 1-3.918-3.918l-.028-.049a10.368 10.368 0 0 1-.624-1.323Z" fill="#4B23EB"/></svg>