<svg width="23" height="23" fill="none" xmlns="http://www.w3.org/2000/svg"><g fill="#fff"><path d="M22.032 3.097 20.78 1.82A2.703 2.703 0 0 0 18.837 1c-.733 0-1.422.291-1.94.82L1.894 17.11l-.001.001a.553.553 0 0 0-.03.034l-.005.005a.547.547 0 0 0-.026.036l-.005.007a.543.543 0 0 0-.02.033l-.006.013-.014.028-.009.02-.008.024-.01.028-.001.005-1.187 4.313-.419.427a.544.544 0 0 0 0 .758.519.519 0 0 0 .744 0l.419-.427 4.23-1.21.003-.001a.497.497 0 0 0 .04-.013l.01-.004.034-.016.014-.007.023-.013.022-.014.013-.009a.591.591 0 0 0 .03-.023l.01-.008a.542.542 0 0 0 .03-.027l.001-.002 8.592-8.758 6.41-6.534c.439-.447.698-1.01.776-1.594.255.379.393.826.393 1.295a2.3 2.3 0 0 1-.66 1.623l-5.463 5.57a.543.543 0 0 0 .17.874.516.516 0 0 0 .574-.116l5.463-5.57A3.378 3.378 0 0 0 23 5.48c0-.9-.344-1.746-.968-2.382ZM1.802 21.164l.728-2.647 1.868 1.904-2.596.743Zm3.603-1.233-2.395-2.44 7.848-8 2.396 2.44-7.849 8ZM20.035 5.02l-6.038 6.154-2.395-2.44 6.038-6.155a1.667 1.667 0 0 1 2.395 0l.002.001a1.752 1.752 0 0 1-.002 2.44Z"/><path fill-rule="evenodd" clip-rule="evenodd" d="M21.778 4.602c.111.274.17.57.17.876a2.3 2.3 0 0 1-.66 1.623l-5.463 5.57a.543.543 0 0 0 .17.874.516.516 0 0 0 .574-.116l5.463-5.57A3.378 3.378 0 0 0 23 5.48c0-.9-.344-1.746-.968-2.382L20.78 1.82A2.703 2.703 0 0 0 18.837 1c-.733 0-1.422.291-1.94.82L1.894 17.11l-.001.001a.553.553 0 0 0-.03.034l-.005.005a.547.547 0 0 0-.026.036l-.002.003-.003.004a.543.543 0 0 0-.02.033l-.002.005-.004.008-.011.023-.002.005-.003.006a.284.284 0 0 0-.007.015l-.008.023-.01.028-.001.005-1.187 4.313-.419.427a.544.544 0 0 0 0 .758.519.519 0 0 0 .744 0l.419-.427 4.23-1.21.003-.001a.497.497 0 0 0 .04-.013l.01-.004.034-.016.014-.007.016-.01.007-.003a.191.191 0 0 1 .006-.004l.016-.01.008-.005a.591.591 0 0 0 .035-.026l.01-.009a.542.542 0 0 0 .03-.027l.001-.002 8.592-8.758 6.41-6.534a2.79 2.79 0 0 0 .776-1.594c.09.132.164.273.223.42ZM5.568 20.85l8.588-8.754h.001l6.41-6.534c.39-.399.62-.9.691-1.42l.106-.782.439.651c.289.43.445.938.445 1.468a2.61 2.61 0 0 1-.748 1.84l-5.463 5.569a.234.234 0 0 0 .074.375.22.22 0 0 0 .173 0 .225.225 0 0 0 .073-.05l5.463-5.568a3.07 3.07 0 0 0 .88-2.165 3.07 3.07 0 0 0-.88-2.165l-1.237-1.262-.017-.017a2.404 2.404 0 0 0-1.729-.73c-.653 0-1.267.26-1.729.731L2.113 17.32v.001l-.007.007a.27.27 0 0 0-.013.015l-.003.004a.38.38 0 0 0-.01.013l-.003.005-.006.011-.001.001-.004.007-.001.003-.004.008-.003.008v.001l-.001.002-.003.008-.003.007-.001.004v.002l-.001.003-.002.005L.84 21.817l-.474.483a.234.234 0 0 0 0 .326.222.222 0 0 0 .32 0l.474-.484 4.298-1.23.007-.001a.211.211 0 0 0 .018-.006l.002-.001.007-.003.012-.006h.001l.005-.002.001-.001.008-.005h.001l.008-.005.007-.005.002-.001a.238.238 0 0 0 .008-.006l.004-.004.002-.002.012-.011.002-.002m-.026.024.002-.002-.002.002ZM2.073 17.37v.002H2.07l.002-.002Zm-.705 4.235 1.012-3.674 2.593 2.643-3.605 1.031Zm4.037-1.241L2.586 17.49l8.272-8.432 2.82 2.874-8.273 8.432Zm8.592-8.758-2.819-2.874 6.25-6.37a1.963 1.963 0 0 1 2.817-.002l.002.002.011.011a2.063 2.063 0 0 1-.01 2.862l-6.25 6.37Zm6.038-6.587c.66-.672.66-1.766.002-2.44l-.002-.002a1.667 1.667 0 0 0-1.198-.505c-.452 0-.877.18-1.197.506l-6.038 6.154 2.395 2.441 6.038-6.154ZM1.802 21.164l2.596-.743-1.868-1.904-.728 2.647Zm3.603-1.233-2.395-2.44 7.848-8 2.396 2.44-7.849 8Z"/></g></svg>