<svg width="24" height="24" fill="none" xmlns="http://www.w3.org/2000/svg"><g fill="#fff"><path d="M22.733 3.994a.428.428 0 0 0-.71-.169l-2.42 2.42-1.456-.39-.39-1.455 2.42-2.42a.429.429 0 0 0-.168-.71c-3.205-1.092-6.357 1.951-5.48 5.148L6.4 14.545c-1.45-.385-3.057.042-4.111 1.115-1.66 1.593-1.66 4.459 0 6.052 1.593 1.66 4.46 1.66 6.052 0 1.073-1.054 1.5-2.662 1.116-4.111l8.125-8.125c3.252.865 6.226-2.286 5.15-5.482ZM7.736 21.107c-2.14 2.148-5.85.611-5.845-2.421-.038-1.84 1.584-3.461 3.424-3.423 3.033-.006 4.57 3.703 2.42 5.844Zm1.385-4.381a4.293 4.293 0 0 0-.78-1.066 4.29 4.29 0 0 0-1.066-.78l7.587-7.586a4.324 4.324 0 0 0 1.845 1.847l-7.586 7.585Zm11.968-8.97c-1.275 1.327-3.568 1.328-4.842 0-2.269-2.269-.4-6.164 2.771-5.828L16.977 3.97a.428.428 0 0 0-.111.413l.518 1.933a.429.429 0 0 0 .302.303l1.934.518a.428.428 0 0 0 .413-.111l2.042-2.042a3.406 3.406 0 0 1-.986 2.772Z"/><path fill-rule="evenodd" clip-rule="evenodd" d="m20.177 1.98-2.42 2.42.39 1.456 1.456.39 2.42-2.42a.428.428 0 0 1 .71.168c1.075 3.196-1.899 6.347-5.15 5.482l-8.126 8.125c.384 1.45-.043 3.057-1.116 4.11-1.593 1.66-4.46 1.66-6.052 0-1.66-1.592-1.66-4.458 0-6.05 1.054-1.074 2.661-1.5 4.111-1.116l8.128-8.127c-.876-3.197 2.276-6.24 5.48-5.148a.428.428 0 0 1 .17.71ZM20.108.973c-3.386-1.154-6.706 1.98-5.927 5.348l-7.878 7.877c-1.507-.334-3.143.13-4.234 1.238-1.784 1.716-1.785 4.78-.002 6.496 1.716 1.783 4.781 1.782 6.497-.001 1.108-1.091 1.572-2.727 1.238-4.234l7.877-7.876c3.421.771 6.485-2.551 5.35-5.927a.74.74 0 0 0-1.227-.291L19.51 5.897 18.402 5.6l-.296-1.106L20.399 2.2a.74.74 0 0 0-.29-1.227ZM7.514 20.886v-.001c1.951-1.943.555-5.314-2.199-5.31h-.007c-1.662-.034-3.138 1.442-3.104 3.105v.006c-.005 2.753 3.367 4.15 5.31 2.2ZM20.867 7.534a3.098 3.098 0 0 0 .887-1.786l-1.5 1.5a.74.74 0 0 1-.715.19l-1.934-.517a.74.74 0 0 1-.524-.524l-.518-1.933a.743.743 0 0 1 .192-.716l.222.222a.428.428 0 0 0-.111.413l.518 1.933a.429.429 0 0 0 .302.303l1.934.518a.428.428 0 0 0 .413-.111l2.042-2.042a3.408 3.408 0 0 1-.986 2.771c-1.275 1.328-3.568 1.329-4.842 0-2.166-2.165-.56-5.813 2.349-5.847.138-.002.279.005.422.02L16.977 3.97l-.222-.222 1.505-1.504c-2.42.298-3.672 3.41-1.792 5.29l.005.005c1.15 1.2 3.239 1.2 4.39 0l.004-.005ZM1.891 18.686c-.038-1.84 1.584-3.461 3.424-3.423 3.033-.006 4.57 3.703 2.42 5.844-2.14 2.148-5.85.611-5.844-2.421Zm7.07-2.243c.057.092.11.186.16.283l7.586-7.585a3.913 3.913 0 0 1-.283-.16 4.384 4.384 0 0 1-1.403-1.403 3.845 3.845 0 0 1-.159-.284L7.275 14.88a4.311 4.311 0 0 1 1.686 1.563Zm.227-.227 7.009-7.008a4.707 4.707 0 0 1-1.403-1.403l-7.009 7.008a4.627 4.627 0 0 1 1.403 1.403Z"/></g></svg>