<svg width="20" height="20" fill="none" xmlns="http://www.w3.org/2000/svg"><path fill-rule="evenodd" clip-rule="evenodd" d="M1.158 8.322a9 9 0 0 0 1.101 6.27l-.888 3.11a.75.75 0 0 0 .928.927l3.11-.889a9 9 0 1 0-4.251-9.418Zm8.42 6.116c.9.372 1.865.563 2.84.562A2.6 2.6 0 0 0 15 12.407a.638.638 0 0 0-.322-.554l-1.894-1.082a.74.74 0 0 0-.749.008l-1.449.87a4.461 4.461 0 0 1-2.234-2.235l.87-1.45a.74.74 0 0 0 .007-.748L8.147 5.322A.638.638 0 0 0 7.593 5 2.59 2.59 0 0 0 5 7.582a7.407 7.407 0 0 0 4.578 6.856Z" fill="#fff"/></svg>