<svg width="199" height="119" viewBox="0 0 199 119" fill="none" xmlns="http://www.w3.org/2000/svg">
<g id="4.0">
<path d="M71.5493 74.3551H85.0749V92.229H71.5493V117.332H49.3002V92.229H0.880361L0 78.4065L48.9801 1.66822H71.5493V74.3551ZM21.849 74.3551H49.3002V31.3785L47.1393 35.1916L21.849 74.3551Z" fill="white"/>
<path d="M87.335 104.542C87.335 100.464 88.6956 97.0218 91.4167 94.2149C94.1378 91.3551 97.926 89.9252 102.781 89.9252C107.583 89.9252 111.345 91.3287 114.066 94.1355C116.84 96.9424 118.228 100.411 118.228 104.542C118.228 108.673 116.814 112.115 113.986 114.869C111.211 117.57 107.477 118.921 102.781 118.921C98.0327 118.921 94.2712 117.544 91.4967 114.79C88.7222 112.036 87.335 108.62 87.335 104.542Z" fill="white"/>
<path d="M199 73.3224C199 80.7897 198.12 87.3832 196.359 93.1028C194.652 98.7695 192.171 103.509 188.916 107.322C185.661 111.188 181.686 114.101 176.991 116.061C172.296 118.02 167.014 119 161.144 119C155.329 119 150.073 118.02 145.378 116.061C140.683 114.101 136.708 111.188 133.453 107.322C130.145 103.509 127.584 98.7695 125.77 93.1028C124.009 87.3832 123.129 80.7897 123.129 73.3224V45.6776C123.129 38.2103 124.009 31.6433 125.77 25.9766C127.531 20.257 130.065 15.4642 133.373 11.5981C136.628 7.78505 140.576 4.89875 145.218 2.93925C149.913 0.979752 155.169 0 160.984 0C166.854 0 172.136 0.979752 176.831 2.93925C181.526 4.89875 185.528 7.78505 188.836 11.5981C192.09 15.4642 194.598 20.257 196.359 25.9766C198.12 31.6433 199 38.2103 199 45.6776V73.3224ZM145.538 63.7897L176.591 40.8318C176.484 36.4891 176.004 32.7819 175.15 29.7103C174.35 26.5857 173.149 24.0966 171.549 22.243C170.322 20.7601 168.801 19.6745 166.987 18.986C165.226 18.2445 163.225 17.8738 160.984 17.8738C158.477 17.8738 156.262 18.3505 154.342 19.3037C152.474 20.2041 150.9 21.581 149.62 23.4346C148.233 25.3941 147.192 27.9361 146.498 31.0607C145.858 34.1854 145.538 37.8925 145.538 42.1822V54.972C145.538 57.514 145.538 59.2087 145.538 60.0561C145.538 60.9034 145.538 62.148 145.538 63.7897ZM176.591 76.6589V63.2336C176.591 61.486 176.591 60.2149 176.591 59.4206C176.591 58.5732 176.591 57.3816 176.591 55.8458L145.538 78.7243C145.645 82.2196 145.992 85.3178 146.579 88.0187C147.219 90.7196 148.099 92.9704 149.22 94.771C150.5 96.9424 152.127 98.5576 154.102 99.6168C156.076 100.676 158.423 101.206 161.144 101.206C163.652 101.206 165.866 100.755 167.787 99.8551C169.708 98.9019 171.309 97.4719 172.589 95.5654C173.923 93.5529 174.91 90.9844 175.55 87.8598C176.244 84.6822 176.591 80.9486 176.591 76.6589Z" fill="white"/>
</g>
</svg>
