<svg width="20" height="20" viewBox="0 0 20 20" fill="none" xmlns="http://www.w3.org/2000/svg">
<rect x="11.4001" y="3" width="2.8" height="2.8" transform="rotate(90 11.4001 3)" fill="#4B23EB"/>
<rect x="17" y="3" width="2.8" height="2.8" transform="rotate(90 17 3)" fill="#4B23EB"/>
<rect x="5.80005" y="3" width="2.8" height="2.8" transform="rotate(90 5.80005 3)" fill="#4B23EB"/>
<rect x="11.4001" y="8.6001" width="2.8" height="2.8" transform="rotate(90 11.4001 8.6001)" fill="#4B23EB"/>
<rect x="17" y="8.6001" width="2.8" height="2.8" transform="rotate(90 17 8.6001)" fill="#4B23EB"/>
<rect x="11.4001" y="14.1997" width="2.8" height="2.8" transform="rotate(90 11.4001 14.1997)" fill="#4B23EB"/>
<rect x="17" y="14.1997" width="2.8" height="2.8" transform="rotate(90 17 14.1997)" fill="#4B23EB"/>
<rect x="5.80005" y="8.6001" width="2.8" height="2.8" transform="rotate(90 5.80005 8.6001)" fill="#4B23EB"/>
<rect x="5.80005" y="14.1997" width="2.8" height="2.8" transform="rotate(90 5.80005 14.1997)" fill="#4B23EB"/>
</svg>
