<svg width="222" height="36" viewBox="0 0 222 36" fill="none" xmlns="http://www.w3.org/2000/svg">
<path d="M24.8834 5.80209H30.2505V0.435059H24.8834V5.80209Z" fill="white"/>
<path opacity="0.5" d="M5.367 21.4154L10.734 21.4154L10.734 16.0483L5.367 16.0483L5.367 21.4154Z" fill="white"/>
<path opacity="0.5" d="M24.8834 10.6814H30.2505V5.80225H24.8834V10.6814Z" fill="white"/>
<path opacity="0.2" d="M24.8834 16.0482H30.2505V10.6812H24.8834V16.0482Z" fill="white"/>
<path opacity="0.5" d="M19.5164 5.80209H24.8835V0.435059H19.5164V5.80209Z" fill="white"/>
<path opacity="0.2" d="M14.1494 5.80209H19.5164V0.435059H14.1494V5.80209Z" fill="white"/>
<path d="M-9.38401e-07 21.4154L5.36703 21.4154L5.36703 16.0483L0 16.0483L-9.38401e-07 21.4154Z" fill="white"/>
<path opacity="0.32" d="M10.734 21.4154L16.101 21.4154L16.101 16.0483L10.734 16.0483L10.734 21.4154Z" fill="white"/>
<path opacity="0.2" d="M5.367 26.7821L10.734 26.7821L10.734 21.415L5.367 21.415L5.367 26.7821Z" fill="white"/>
<path opacity="0.5" d="M-9.38401e-07 26.7821L5.36703 26.7821L5.36703 21.415L0 21.415L-9.38401e-07 26.7821Z" fill="white"/>
<path opacity="0.2" d="M-9.38401e-07 32.1493L5.36703 32.1493L5.36703 26.7822L0 26.7822L-9.38401e-07 32.1493Z" fill="white"/>
<path d="M50.5087 9.91895L45.6251 4.61272V14.0966H42.9362V0.435059L44.9924 0.435059L50.5482 6.63225L56.0249 0.435059L58.0614 0.435059V14.0966H55.3725V4.65232L50.5087 9.91895Z" fill="white"/>
<path d="M70.7472 11.7801V14.0966H60.0132V0.435059L70.7274 0.435059V2.75159H62.7019V6.07787H70.5893V8.37461H62.7019V11.7801H70.7472Z" fill="white"/>
<path d="M84.4088 5.4047C84.4088 7.21301 84.0117 8.55276 83.2188 9.42394C82.4384 10.282 81.2416 10.7109 79.6285 10.7109H74.9084V14.0966H72.211V0.435059L79.5893 0.435059C81.2944 0.435059 82.5241 0.817846 83.2779 1.58342C84.0316 2.34899 84.4088 3.62275 84.4088 5.4047ZM79.1326 2.75159H74.9084V8.3944H79.1724C80.0318 8.3944 80.66 8.17003 81.0564 7.72123C81.4665 7.27243 81.6716 6.51346 81.6716 5.44429C81.6716 4.38833 81.4933 3.67555 81.136 3.30596C80.7793 2.93638 80.1113 2.75159 79.1326 2.75159Z" fill="white"/>
<path d="M88.0535 0.435059V9.74073L95.6451 0.435059L97.5824 0.435059V14.0966H94.8938V4.87011L87.2427 14.0966H85.3846V0.435059L88.0535 0.435059Z" fill="white"/>
<path d="M113.684 11.7138V17.512H111.146V14.1363H101.115V17.512H98.5583V11.7138H100.081C100.653 10.7871 101.018 9.82072 101.173 8.81469C101.329 7.79535 101.408 6.05456 101.408 3.59231V0.435059L111.907 0.435059V11.7138H113.684ZM103.886 4.28729C103.886 7.84829 103.515 10.3238 102.774 11.7138H109.233V2.75832H103.886V4.28729Z" fill="white"/>
<path d="M117.328 0.435059V9.74073L124.92 0.435059L126.857 0.435059V14.0966H124.168V4.87011L116.517 14.0966H114.659V0.435059L117.328 0.435059Z" fill="white"/>
<path d="M127.345 14.0966L133.576 0.435059L135.813 0.435059L141.983 14.0966H138.948L137.989 11.7801H131.299L130.321 14.0966H127.345ZM134.674 3.84054L132.178 9.74073H137.13L134.674 3.84054Z" fill="white"/>
<path d="M145.17 0.435059V6.07787H152.456V0.435059L155.156 0.435059V14.0966H152.456V8.4934H145.17V14.0966H142.47V0.435059L145.17 0.435059Z" fill="white"/>
<path d="M41.9604 32.1493L48.1908 18.4878H50.4273L56.5977 32.1493H53.5625L52.6039 29.8328H45.9143L44.9358 32.1493H41.9604ZM49.2891 21.8933L46.7929 27.7935H51.7453L49.2891 21.8933Z" fill="white"/>
<path d="M66.4136 25.0612V25.2394C68.3269 25.4902 69.2836 26.5065 69.2836 28.2885C69.2836 29.6216 68.8983 30.5984 68.1277 31.2188C67.3571 31.8392 66.1813 32.1493 64.6002 32.1493H57.0858V18.4878H64.321C65.9421 18.4878 67.1111 18.7782 67.8286 19.359C68.5461 19.9266 68.9051 20.8769 68.9051 22.2101C68.9051 22.9624 68.6791 23.5828 68.2276 24.0712C67.7886 24.5596 67.1841 24.8896 66.4136 25.0612ZM64.1212 26.2689H59.7964V29.8328H64.1612C64.9855 29.8328 65.5899 29.7008 65.9752 29.4368C66.3736 29.1597 66.5728 28.6976 66.5728 28.0508C66.5728 27.3645 66.3936 26.8959 66.0352 26.6451C65.6892 26.3943 65.0516 26.2689 64.1212 26.2689ZM63.882 20.8043H59.7964V24.2494H63.922C64.6926 24.2494 65.264 24.1108 65.6361 23.8336C66.0083 23.5564 66.1944 23.0944 66.1944 22.4476C66.1944 21.8009 66.0283 21.3653 65.6961 21.1409C65.3639 20.9165 64.7594 20.8043 63.882 20.8043Z" fill="white"/>
<path d="M82.4571 18.4878V20.9033H77.2279V32.1493H74.5133V20.9033H69.2834V18.4878H82.4571Z" fill="white"/>
<path d="M93.1382 32.3032C92.2937 32.5259 91.2538 32.6372 90.0197 32.6372C88.785 32.6372 87.7396 32.5259 86.8817 32.3032C86.0372 32.0804 85.3094 31.7005 84.6987 31.1633C84.0881 30.6262 83.6399 29.9056 83.3541 29.0016C83.0812 28.0845 82.945 26.9447 82.945 25.5822C82.945 24.1803 83.094 23.0143 83.3932 22.0841C83.6918 21.1408 84.1534 20.4137 84.7769 19.9027C85.4138 19.3787 86.141 19.0119 86.9599 18.8022C87.7916 18.5926 88.8113 18.4878 90.0197 18.4878C91.2153 18.4878 92.2223 18.5926 93.0405 18.8022C93.8722 19.0119 94.6062 19.3787 95.243 19.9027C95.8799 20.4137 96.3477 21.1408 96.6463 22.0841C96.9455 23.0143 97.0945 24.1803 97.0945 25.5822C97.0945 26.9447 96.9516 28.0845 96.6658 29.0016C96.38 29.9056 95.9318 30.6262 95.3212 31.1633C94.7106 31.7005 93.9827 32.0804 93.1382 32.3032ZM88.0315 30.1218C88.5384 30.2266 89.2009 30.279 90.0197 30.279C90.8386 30.279 91.4944 30.2266 91.9884 30.1218C92.4818 30.0038 92.9239 29.7811 93.3135 29.4536C93.7165 29.1261 93.9955 28.6479 94.1518 28.019C94.3204 27.3901 94.4052 26.5778 94.4052 25.5822C94.4052 24.5471 94.3204 23.7152 94.1518 23.0864C93.9955 22.4444 93.7165 21.9662 93.3135 21.6517C92.9104 21.3243 92.4622 21.1081 91.9689 21.0032C91.4877 20.8984 90.8386 20.846 90.0197 20.846C89.1881 20.846 88.5255 20.8984 88.0315 21.0032C87.551 21.095 87.1095 21.3046 86.7065 21.6321C86.3035 21.9597 86.0177 22.4444 85.8485 23.0864C85.6928 23.7152 85.6147 24.5471 85.6147 25.5822C85.6147 26.5909 85.6928 27.4098 85.8485 28.0386C86.0177 28.6544 86.2973 29.1261 86.6869 29.4536C87.0899 29.7811 87.5381 30.0038 88.0315 30.1218Z" fill="white"/>
<path d="M106.131 27.9717L101.247 22.6654V32.1493H98.5583V18.4878H100.614L106.17 24.685L111.647 18.4878H113.684V32.1493H110.994V22.705L106.131 27.9717Z" fill="white"/>
<path d="M114.172 32.1493L120.402 18.4878H122.638L128.809 32.1493H125.774L124.815 29.8328H118.126L117.147 32.1493H114.172ZM121.5 21.8933L119.004 27.7935H123.956L121.5 21.8933Z" fill="white"/>
<path d="M139.543 18.4878V20.9033H134.313V32.1493H131.598V20.9033H126.369V18.4878H139.543Z" fill="white"/>
<path d="M143.188 18.4878V27.7935L150.779 18.4878H152.717V32.1493H150.028V22.9228L142.377 32.1493H140.519V18.4878H143.188Z" fill="white"/>
<path d="M166.378 28.5103C166.378 31.2616 164.335 32.6372 160.251 32.6372C158.123 32.6372 156.525 32.2442 155.454 31.4581C154.384 30.6589 153.796 29.316 153.692 27.4295H156.394C156.498 28.5693 156.857 29.3291 157.47 29.7091C158.084 30.089 158.998 30.279 160.211 30.279C161.438 30.279 162.319 30.1218 162.854 29.8074C163.403 29.4798 163.677 28.982 163.677 28.3138C163.677 27.6849 163.507 27.2329 163.168 26.9578C162.841 26.6696 162.202 26.5254 161.249 26.5254H159.233V24.3637H161.171C161.993 24.3637 162.548 24.2065 162.835 23.8921C163.135 23.5645 163.285 23.1453 163.285 22.6343C163.285 21.4422 162.247 20.846 160.172 20.846C159.05 20.846 158.182 21.0426 157.569 21.4356C156.955 21.8155 156.655 22.5492 156.668 23.6366H154.006C153.966 21.8155 154.488 20.5054 155.571 19.7062C156.668 18.894 158.208 18.4878 160.192 18.4878C162.11 18.4878 163.559 18.8285 164.538 19.5097C165.517 20.1779 166.006 21.1474 166.006 22.4182C166.006 23.165 165.784 23.7807 165.341 24.2655C164.91 24.7371 164.323 25.0646 163.579 25.2481V25.4053C165.445 25.6673 166.378 26.7023 166.378 28.5103Z" fill="white"/>
<path d="M166.378 32.1493L172.608 18.4878H174.845L181.015 32.1493H177.98L177.021 29.8328H170.332L169.354 32.1493H166.378ZM173.707 21.8933L171.21 27.7935H176.163L173.707 21.8933Z" fill="white"/>
<path d="M184.237 18.4878V29.7665H190.729V18.4878H193.461V29.7665H195.653V35.5647H193.04V32.189H181.503V18.4878H184.237Z" fill="white"/>
<path d="M199.297 18.4878V27.7935L206.889 18.4878H208.826V32.1493H206.137V22.9228L198.487 32.1493H196.628V18.4878H199.297Z" fill="white"/>
<path d="M222 32.1493H219.331V27.932H215.473L213.329 32.1493H210.29L212.881 27.6351C211.18 27.0015 210.329 25.4902 210.329 23.101C210.329 21.4511 210.719 20.2697 211.498 19.557C212.278 18.8442 213.544 18.4878 215.297 18.4878H222V32.1493ZM213.018 23.1406C213.018 24.091 213.206 24.7444 213.583 25.1007C213.959 25.444 214.603 25.6155 215.512 25.6155H219.331V20.8043H215.551C214.589 20.8043 213.927 20.9693 213.563 21.2993C213.199 21.616 213.018 22.2299 213.018 23.1406Z" fill="white"/>
<rect y="0.435059" width="10.7341" height="2.43956" fill="white"/>
<rect x="30.2505" y="32.1494" width="14.1494" height="2.43956" transform="rotate(180 30.2505 32.1494)" fill="white"/>
<rect y="1.89844" width="2.43956" height="8.78242" fill="white"/>
<rect x="30.2505" y="30.6855" width="2.92747" height="9.27033" transform="rotate(180 30.2505 30.6855)" fill="white"/>
</svg>
