<svg width="24" height="24" viewBox="0 0 24 24" fill="none" xmlns="http://www.w3.org/2000/svg">
<g id="MagnifyingGlass">
<path id="Vector" d="M21.3975 20.6023L16.5806 15.7854C17.9542 14.2057 18.6608 12.1545 18.5515 10.064C18.4422 7.9735 17.5255 6.00712 15.9946 4.57934C14.4638 3.15157 12.4384 2.37395 10.3453 2.41041C8.25232 2.44686 6.25521 3.29454 4.775 4.77475C3.29478 6.25497 2.4471 8.25208 2.41065 10.3451C2.3742 12.4381 3.15182 14.4635 4.57959 15.9944C6.00736 17.5253 7.97374 18.442 10.0642 18.5513C12.1547 18.6606 14.206 17.954 15.7856 16.5804L20.6025 21.3973C20.7091 21.4966 20.8502 21.5507 20.9959 21.5481C21.1416 21.5456 21.2807 21.4865 21.3837 21.3835C21.4868 21.2804 21.5458 21.1414 21.5484 20.9957C21.551 20.8499 21.4969 20.7089 21.3975 20.6023ZM3.5625 10.4998C3.5625 9.12765 3.96938 7.78636 4.73168 6.64549C5.49399 5.50463 6.57748 4.61543 7.84514 4.09035C9.1128 3.56526 10.5077 3.42788 11.8534 3.69556C13.1992 3.96325 14.4353 4.62398 15.4056 5.59421C16.3758 6.56443 17.0365 7.80058 17.3042 9.14632C17.5719 10.4921 17.4345 11.887 16.9094 13.1546C16.3843 14.4223 15.4951 15.5058 14.3543 16.2681C13.2134 17.0304 11.8721 17.4373 10.5 17.4373C8.66075 17.435 6.89747 16.7034 5.59692 15.4028C4.29637 14.1023 3.56474 12.339 3.5625 10.4998Z" fill="white"/>
</g>
</svg>
