<svg width="800" height="746" viewBox="0 0 800 746" fill="none" xmlns="http://www.w3.org/2000/svg">
<line class="svg_line_1" y1="-50.75" x2="242.325" y2="-0.75" transform="matrix(0.484485 0.874799 -0.874987 0.484146 190.942 115.754)" stroke="#E3E3E3" stroke-width="1.5">
  <animate attributeName="y1" values="-0.75;-50;-0.75" dur="3s" repeatCount="indefinite"></animate>
</line>


<line class="svg_line_2" y1="-0.75" x2="307.234" y2="-0.75" transform="matrix(-0.0431893 0.999067 -0.999069 -0.0431499 335.904 20.5543)" stroke="#E3E3E3" stroke-width="1.5"/>


<line class="svg_line_3" y1="-0.75" x2="363.488" y2="-0.75" transform="matrix(-0.50469 0.863301 -0.863502 -0.504346 514.403 20.5543)" stroke="#E3E3E3" stroke-width="1.5"/>


<line class="svg_line_4" y1="-0.75" x2="312.643" y2="-0.75" transform="matrix(-0.751224 0.660048 -0.660388 -0.750924 578.229 121.162)" stroke="#E3E3E3" stroke-width="1.5"/>
<line class="svg_line_5" y1="-0.75" x2="421.905" y2="-0.75" transform="matrix(-0.86192 0.507044 -0.507388 -0.861717 706.964 121.162)" stroke="#E3E3E3" stroke-width="1.5"/>
<line class="svg_line_6" y1="-0.75" x2="306.152" y2="-0.75" transform="matrix(-0.951166 0.308679 -0.308934 -0.951083 631.238 245.571)" stroke="#E3E3E3" stroke-width="1.5"/>
<line class="svg_line_7" y1="-0.75" x2="446.787" y2="-0.75" transform="matrix(-0.999557 -0.0297604 0.0297876 -0.999556 787.018 366.733)" stroke="#E3E3E3" stroke-width="1.5"/>
<line class="svg_line_8" y1="-0.75" x2="381.878" y2="-0.75" transform="matrix(-0.970169 -0.242431 0.24264 -0.970116 706.964 446.787)" stroke="#E3E3E3" stroke-width="1.5"/>
<line class="svg_line_9" y1="-0.75" x2="537.659" y2="-0.75" transform="matrix(-0.847514 -0.530773 0.531121 -0.847296 792.427 644.758)" stroke="#E3E3E3" stroke-width="1.5"/>
<line class="svg_line_10" y1="-0.75" x2="217.443" y2="-0.75" transform="matrix(-0.732949 -0.680284 0.680618 -0.732638 487.357 503.041)" stroke="#E3E3E3" stroke-width="1.5"/>
<line class="svg_line_11" y1="-0.75" x2="256.389" y2="-0.75" transform="matrix(-0.450327 -0.892864 0.893029 -0.449999 444.085 584.177)" stroke="#E3E3E3" stroke-width="1.5"/>
<line class="svg_line_12" y1="-0.75" x2="385.124" y2="-0.75" transform="matrix(-0.0883635 -0.996088 0.996095 -0.0882834 362.949 739.957)" stroke="#E3E3E3" stroke-width="1.5"/>
<line class="svg_line_13" y1="-0.75" x2="510.614" y2="-0.75" transform="matrix(0.755471 0.655182 -0.655524 0.755174 -68.6921 9.73621)" stroke="#E3E3E3" stroke-width="1.5"/>
<line class="svg_line_14" y1="-0.75" x2="446.787" y2="-0.75" transform="matrix(0.859086 0.511832 -0.512177 0.85888 -73.0193 115.754)" stroke="#E3E3E3" stroke-width="1.5"/>
<line class="svg_line_15" y1="-0.75" x2="281.27" y2="-0.75" transform="matrix(0.923338 0.383987 -0.384286 0.923214 57.8794 240.161)" stroke="#E3E3E3" stroke-width="1.5"/>
<line class="svg_line_16" y1="-0.75" x2="518.186" y2="-0.75" transform="matrix(0.993157 0.116789 -0.116894 0.993144 -197.427 287.761)" stroke="#E3E3E3" stroke-width="1.5"/>
<line class="svg_line_17" y1="-0.75" x2="397.024" y2="-0.75" transform="matrix(0.953838 -0.300322 0.300572 0.953759 -63.2832 472.75)" stroke="#E3E3E3" stroke-width="1.5"/>
<line class="svg_line_18" y1="-0.75" x2="446.787" y2="-0.75" transform="matrix(0.863879 -0.503699 0.504043 0.863679 -70.8557 584.177)" stroke="#E3E3E3" stroke-width="1.5"/>
<line class="svg_line_19" y1="-0.75" x2="333.197" y2="-0.75" transform="matrix(0.487737 -0.872991 0.87318 0.487397 156.324 651.249)" stroke="#E3E3E3" stroke-width="1.5"/>
<rect class="box_1" x="301.205" y="322.297" width="48.845" height="48.845" fill="#4B23EB" stroke="#F3F3F3" stroke-width="2"/>
<rect class="box_2" x="230.447" y="87.849" width="11.4817" height="11.4817" fill="#4B23EB" stroke="#F3F3F3" stroke-width="1.5">
  <animate attributeName="x" values="188.447;230.447;188.447" dur="3s" repeatCount="indefinite"></animate>
  <animate attributeName="y" values="107.849;87.849;107.849" dur="3s" repeatCount="indefinite"></animate>
</rect>
<rect class="box_3" x="331.245" y="13.7317" width="11.4817" height="11.4817" fill="#A6A6A6" stroke="#F3F3F3" stroke-width="1.5"/>
<rect class="box_4" x="48.8931" y="231.175" width="11.4817" height="11.4817" fill="#A6A6A6" stroke="#F3F3F3" stroke-width="1.5"/>
<rect class="box_5" x="152.747" y="643.344" width="11.4817" height="11.4817" fill="#4B23EB" stroke="#F3F3F3" stroke-width="1.5"/>
<rect class="box_6" x="439.426" y="577.354" width="11.4817" height="11.4817" fill="#A6A6A6" stroke="#F3F3F3" stroke-width="1.5"/>
<rect class="box_7" x="356.127" y="733.134" width="11.4817" height="11.4817" fill="#4B23EB" stroke="#F3F3F3" stroke-width="1.5"/>
<rect class="box_8" x="480.535" y="496.218" width="11.4817" height="11.4817" fill="#A6A6A6" stroke="#F3F3F3" stroke-width="1.5"/>
<rect class="box_9" x="787.768" y="637.935" width="11.4817" height="11.4817" fill="#4B23EB" stroke="#F3F3F3" stroke-width="1.5"/>
<rect class="box_10" x="702.305" y="439.964" width="11.4817" height="11.4817" fill="#4B23EB" stroke="#F3F3F3" stroke-width="1.5"/>
<rect class="box_11" x="782.359" y="359.91" width="11.4817" height="11.4817" fill="#4B23EB" stroke="#F3F3F3" stroke-width="1.5"/>
<rect class="box_12" x="625.497" y="241.993" width="11.4817" height="11.4817" fill="#A6A6A6" stroke="#F3F3F3" stroke-width="1.5"/>
<rect class="box_13" x="702.305" y="114.34" width="11.4817" height="11.4817" fill="#A6A6A6" stroke="#F3F3F3" stroke-width="1.5"/>
<rect class="box_14" x="573.57" y="114.34" width="11.4817" height="11.4817" fill="#4B23EB" stroke="#F3F3F3" stroke-width="1.5"/>
<rect class="box_1" x="506.498" y="13.7317" width="11.4817" height="11.4817" fill="#A6A6A6" stroke="#F3F3F3" stroke-width="1.5"/>
</svg>
