<svg width="24" height="24" viewBox="0 0 24 24" fill="none" xmlns="http://www.w3.org/2000/svg">
<g id="Phone">
<path id="Vector" d="M20.7741 15.0279L16.3453 13.0432C16.1447 12.9573 15.9257 12.9227 15.7083 12.9427C15.4909 12.9626 15.282 13.0365 15.1003 13.1576C15.0819 13.1695 15.0643 13.1826 15.0478 13.197L12.7331 15.1657C12.7091 15.1788 12.6824 15.1862 12.655 15.1871C12.6277 15.1881 12.6005 15.1827 12.5756 15.1714C11.0878 14.4532 9.54657 12.9214 8.82563 11.4542C8.81362 11.4297 8.80738 11.4027 8.80738 11.3754C8.80738 11.3481 8.81362 11.3212 8.82563 11.2967L10.8009 8.95293C10.8151 8.93559 10.8283 8.91744 10.8403 8.89856C10.9597 8.71622 11.0319 8.50701 11.0502 8.28981C11.0685 8.07262 11.0325 7.85427 10.9453 7.6545L8.97469 3.23325C8.86278 2.97226 8.66924 2.7546 8.42312 2.61295C8.177 2.47129 7.89158 2.41328 7.60969 2.44762C6.38459 2.60868 5.26005 3.21031 4.44621 4.14009C3.63238 5.06987 3.18494 6.26417 3.1875 7.49981C3.1875 14.8404 9.15938 20.8123 16.5 20.8123C17.7356 20.8147 18.9298 20.3672 19.8595 19.5534C20.7893 18.7396 21.3909 17.6151 21.5522 16.3901C21.5865 16.1096 21.5292 15.8254 21.389 15.58C21.2488 15.3345 21.0332 15.1409 20.7741 15.0279ZM16.5 19.6873C9.78 19.6873 4.3125 14.2198 4.3125 7.49981C4.30937 6.53787 4.65657 5.60769 5.28923 4.88307C5.9219 4.15845 6.79674 3.68895 7.75032 3.56231H7.77188C7.80966 3.56301 7.84634 3.57512 7.87712 3.59703C7.90791 3.61895 7.93135 3.64965 7.94438 3.68512L9.9225 8.10168C9.93378 8.12624 9.93963 8.15294 9.93963 8.17997C9.93963 8.20699 9.93378 8.23369 9.9225 8.25825L7.94344 10.6076C7.92868 10.6244 7.9152 10.6423 7.90313 10.6611C7.77929 10.8501 7.70637 11.0679 7.69142 11.2934C7.67647 11.519 7.72001 11.7445 7.81782 11.9482C8.64938 13.6507 10.365 15.3532 12.0863 16.1848C12.2912 16.2821 12.5178 16.3246 12.7441 16.3081C12.9703 16.2917 13.1885 16.2169 13.3772 16.0911C13.395 16.0789 13.4128 16.0657 13.4297 16.0517L15.7434 14.0829C15.7663 14.0707 15.7915 14.0635 15.8174 14.0618C15.8433 14.0602 15.8692 14.0642 15.8934 14.0736L20.3231 16.0582C20.3593 16.0737 20.3897 16.1001 20.4101 16.1337C20.4304 16.1673 20.4397 16.2065 20.4366 16.2457C20.3106 17.1998 19.8415 18.0753 19.1171 18.7086C18.3926 19.342 17.4623 19.6899 16.5 19.6873Z" fill="white"/>
</g>
</svg>
