<svg width="24" height="24" viewBox="0 0 24 24" fill="none" xmlns="http://www.w3.org/2000/svg">
<g id="Group">
<path id="Vector" d="M22.7507 4.18064L20.8289 2.25973C20.4821 1.9131 19.9186 1.9131 19.5573 2.25973L18.3724 3.45849C18.1412 3.68958 18.0545 4.02176 18.1412 4.32507L16.913 5.55271C16.1327 6.31819 15.1067 6.75148 14.0952 6.75148H14.0519C12.737 6.75148 11.4365 7.30031 10.4539 8.26798L2.41972 16.2982C1.88508 16.8326 1.85618 17.6848 2.36192 18.2047L6.79804 22.6387C7.04369 22.8842 7.37604 22.9998 7.69394 22.9998C8.05519 22.9998 8.41643 22.8553 8.70543 22.5809L16.7396 14.5506C17.6933 13.5974 18.2424 12.3264 18.2568 11.0555C18.2568 10.0011 18.6759 9.00457 19.4128 8.25354L20.7711 6.8959C21.0601 6.93923 21.3635 6.85258 21.5514 6.63593L22.7507 5.43717C23.0831 5.0761 23.0831 4.51282 22.7507 4.16619V4.18064ZM20.9156 5.62493L19.3839 4.09398L20.1931 3.27073L21.7392 4.81612L20.9156 5.62493ZM14.0374 7.92135H14.0952C15.1501 7.92135 16.1905 7.57472 17.0719 6.92479L18.1123 7.96468C17.4476 8.8457 17.1008 9.90003 17.0864 11.041C17.0864 12.0087 16.6529 12.9764 15.9159 13.713L7.88179 21.7432C7.80954 21.8154 7.67949 21.8443 7.62169 21.7865L3.20002 17.367C3.20002 17.367 3.17112 17.1937 3.24337 17.107L11.2775 9.07678C12.0289 8.32575 13.026 7.90691 14.0374 7.90691V7.92135ZM19.8319 6.1882L18.9071 7.11255L17.9534 6.15932L18.8782 5.23497L19.8319 6.1882Z" fill="#262531"/>
</g>
</svg>
