<svg width="24" height="24" viewBox="0 0 24 24" fill="none" xmlns="http://www.w3.org/2000/svg">
<g id="pills" clip-path="url(#clip0_648_235)">
<path id="Vector" d="M8.10368 9.30253L2.40907 14.9971C0.588253 16.8179 0.588253 19.77 2.40907 21.5909C4.22989 23.4117 7.18201 23.4117 9.00282 21.5909L14.5476 16.0461C14.6304 15.9634 14.7645 15.9634 14.8472 16.0461C14.93 16.1289 15.0642 16.1289 15.147 16.0461L16.0462 15.147C16.1289 15.0642 16.1289 14.9301 16.0462 14.8473C15.9634 14.7645 15.9634 14.6303 16.0462 14.5476L21.5909 9.00281C23.4117 7.182 23.4117 4.22987 21.5909 2.40907C19.7701 0.588254 16.8179 0.588254 14.9972 2.40907L9.4524 7.95381C9.36964 8.03658 9.23545 8.03657 9.15268 7.95381C9.06992 7.87104 8.93573 7.87104 8.85296 7.95381L8.4034 8.40338C8.07234 8.73444 8.07234 9.27118 8.4034 9.60224L14.098 15.2968" stroke="#262531" stroke-width="1.5"/>
</g>
<defs>
<clipPath id="clip0_648_235">
<rect width="24" height="24" fill="white"/>
</clipPath>
</defs>
</svg>
