<svg width="24" height="24" viewBox="0 0 24 24" fill="none" xmlns="http://www.w3.org/2000/svg">
<g id="package">
<path id="Vector" d="M6.07589 3.74834C5.38393 5.6863 4 10.2733 4 13.1176C4 15.9619 4 19.8632 4 21.4583M6.07589 3.74834V2.49612L16.8571 2.08691V3.43529M6.07589 3.74834C6.65219 5.95933 7.70332 9.58221 8.05552 12.2902C8.13076 12.8688 8.1741 13.4055 8.1741 13.8779C8.1741 15.0375 8.1741 17.8581 8.1741 20.2508C8.1741 21.2906 8.1741 22.2497 8.1741 22.9565M6.07589 3.74834V19.7365M4 21.4583L8.1741 22.9565M4 21.4583L6.07589 19.7365M16.8571 3.43529C17.4122 5.312 18.3987 8.89559 18.8108 11.1722C18.9291 11.8252 19 12.3707 19 12.7375C19 13.8565 19 16.4586 19 18.7079C19 19.7667 19 20.7473 19 21.4583L8.1741 22.9565M16.8571 3.43529L11.9412 4.93276M8.1741 22.9565L6.07589 19.7365" stroke="#262531" stroke-width="1.5"/>
</g>
</svg>
