<svg width="20" height="20" viewBox="0 0 20 20" fill="none" xmlns="http://www.w3.org/2000/svg">
<path d="M7.85279 7.85225C9.37265 6.33239 9.64974 4.05501 9.70026 0.00390625C4.41558 0.159467 0.159928 4.41513 0.00436401 9.6998C4.05547 9.64928 6.33285 9.37219 7.85279 7.85225Z" fill="white"/>
<path d="M0.00440602 9.7003C0.00147552 9.79985 0 9.8997 0 10C0 10.1002 0.00147548 10.2001 0.00440589 10.2997C4.05552 10.3502 6.33289 10.6273 7.85283 12.1472C9.37269 13.6671 9.64978 15.9445 9.7003 19.9956C9.79985 19.9985 9.89978 20 10 20C10.1002 20 10.2001 19.9985 10.2997 19.9956C10.3502 15.9445 10.6273 13.6671 12.1472 12.1472C13.6671 10.6273 15.9445 10.3502 19.9956 10.2997C19.9985 10.2001 20 10.1002 20 10C20 9.8997 19.9985 9.79985 19.9956 9.7003C15.9445 9.64978 13.6671 9.37269 12.1472 7.85275C10.6273 6.33288 10.3502 4.05551 10.2997 0.00440574C10.2001 0.00147543 10.1002 0 10 0C9.89978 0 9.79985 0.00147545 9.7003 0.00440583C9.64978 4.05551 9.37269 6.33289 7.85283 7.85275C6.33289 9.37269 4.05551 9.64978 0.00440602 9.7003Z" fill="#31303B"/>
<path d="M10.2997 0.00390625C10.3502 4.05501 10.6273 6.33238 12.1472 7.85225C13.6671 9.37219 15.9445 9.64928 19.9956 9.6998C19.84 4.41512 15.5844 0.159466 10.2997 0.00390625Z" fill="white"/>
<path fill-rule="evenodd" clip-rule="evenodd" d="M9.7003 0V0.00440583C9.79985 0.00147545 9.89978 0 10 0C10.1002 0 10.2001 0.00147543 10.2997 0.00440574V0H10H9.7003ZM0 9.7003H0.00440602C0.00147552 9.79985 0 9.8997 0 10V9.7003ZM0.00440589 10.2997C0.00147548 10.2001 0 10.1002 0 10V10.2997H0.00440589ZM9.7003 19.9956L9.70037 20H10H10.2997V19.9956C10.2001 19.9985 10.1002 20 10 20C9.89978 20 9.79985 19.9985 9.7003 19.9956ZM20 10.2996L19.9956 10.2997C19.9985 10.2001 20 10.1002 20 10V10.2996ZM20 9.7003V10C20 9.8997 19.9985 9.79985 19.9956 9.7003H20Z" fill="#31303B"/>
<path d="M0.00436401 10.2998C0.159926 15.5845 4.41559 19.8401 9.70026 19.9957C9.64974 15.9446 9.37265 13.6672 7.85279 12.1473C6.33285 10.6274 4.05548 10.3503 0.00436401 10.2998Z" fill="white"/>
<path d="M12.1472 12.1473C10.6273 13.6672 10.3502 15.9446 10.2997 19.9957C15.5844 19.8401 19.84 15.5845 19.9956 10.2998C15.9445 10.3503 13.6671 10.6274 12.1472 12.1473Z" fill="white"/>
</svg>
