<svg width="22" height="20" viewBox="0 0 22 20" fill="none" xmlns="http://www.w3.org/2000/svg">
<path fill-rule="evenodd" clip-rule="evenodd" d="M1.3749 10.3184C6.74359 7.9193 10.3236 6.33767 12.1148 5.5735C17.2292 3.39166 18.2919 3.01265 18.9846 3.00013C19.1369 2.99738 19.4776 3.03611 19.6982 3.21974C19.8845 3.3748 19.9358 3.58426 19.9603 3.73128C19.9848 3.87829 20.0154 4.21319 19.9911 4.47487C19.714 7.46165 18.5147 14.7098 17.9046 18.055C17.6465 19.4705 17.1382 19.9451 16.6461 19.9916C15.5766 20.0925 14.7645 19.2667 13.7287 18.5702C12.1078 17.4805 11.1921 16.8021 9.61879 15.7387C7.80053 14.5097 8.97923 13.8343 10.0154 12.7304C10.2866 12.4415 14.9987 8.04547 15.0899 7.64668C15.1013 7.59681 15.1119 7.41089 15.0042 7.31273C14.8965 7.21456 14.7376 7.24813 14.6229 7.27483C14.4604 7.31267 11.871 9.06807 6.85486 12.541C6.11988 13.0587 5.45416 13.3109 4.8577 13.2977C4.20015 13.2831 2.93528 12.9163 1.99498 12.6028C0.84166 12.2183 -0.074973 12.015 0.00484519 11.362C0.0464194 11.0218 0.503103 10.674 1.3749 10.3184Z" fill="white"/>
</svg>
