<svg width="20" height="20" viewBox="0 0 20 20" fill="none" xmlns="http://www.w3.org/2000/svg">
<g id="WhatsappLogo">
<g id="WhatsappLogo_2">
<path id="Subtract" fill-rule="evenodd" clip-rule="evenodd" d="M1.15775 8.32244C0.749054 10.4766 1.14082 12.7059 2.25947 14.5917L2.25954 14.5917L1.37105 17.7014C1.33429 17.83 1.3326 17.9662 1.36617 18.0957C1.39973 18.2252 1.46732 18.3434 1.56194 18.4381C1.65656 18.5327 1.77476 18.6003 1.90429 18.6338C2.03382 18.6674 2.16996 18.6657 2.29862 18.629L5.40835 17.7405L5.40833 17.7406C7.29412 18.8592 9.52342 19.2509 11.6776 18.8422C13.8318 18.4335 15.7627 17.2525 17.1077 15.5209C18.4527 13.7893 19.1194 11.6262 18.9824 9.43785C18.8455 7.24952 17.9144 5.18644 16.3639 3.63603C14.8135 2.08562 12.7504 1.15452 10.5621 1.01758C8.37376 0.880641 6.2107 1.54728 4.47909 2.89231C2.74748 4.23734 1.56644 6.16825 1.15775 8.32244ZM9.57758 14.4382C10.4782 14.8105 11.4434 15.0014 12.4179 15C13.1031 14.9952 13.7587 14.7202 14.2422 14.2348C14.7257 13.7493 14.998 13.0926 15 12.4074C15 12.2949 14.9703 12.1844 14.9138 12.0871C14.8573 11.9898 14.7761 11.9091 14.6784 11.8533L12.784 10.7708C12.6698 10.7055 12.5402 10.6718 12.4087 10.6732C12.2771 10.6746 12.1483 10.7111 12.0354 10.7788L10.5865 11.6481C9.59393 11.2008 8.79916 10.4061 8.3519 9.4135L9.22126 7.96457C9.28895 7.85174 9.32538 7.72291 9.32677 7.59134C9.32817 7.45977 9.2945 7.33019 9.22922 7.21595L8.14671 5.32157C8.09089 5.22388 8.01024 5.14269 7.91293 5.08622C7.81562 5.02974 7.7051 5 7.59259 5C6.90664 4.99942 6.24846 5.27093 5.76243 5.75499C5.2764 6.23904 5.00221 6.89611 5.00001 7.58207C4.99862 8.55659 5.18955 9.52181 5.56184 10.4224C5.93414 11.323 6.48049 12.1413 7.16958 12.8304C7.85867 13.5195 8.67697 14.0659 9.57758 14.4382Z" fill="white"/>
</g>
</g>
</svg>
