<svg width="20" height="20" viewBox="0 0 20 20" fill="none" xmlns="http://www.w3.org/2000/svg">
<g id="Frame 1948754661">
<g id="Group">
<path id="Subtract" fill-rule="evenodd" clip-rule="evenodd" d="M17.8136 3.41818C18.6746 3.64867 19.3513 4.32532 19.5818 5.18637C19.9983 6.74547 20 10.0003 20 10.0003C20 10.0003 20 13.2552 19.5818 14.8143C19.3513 15.6754 18.6746 16.352 17.8136 16.5825C16.2545 17.0007 9.99996 17.0007 9.99996 17.0007C9.99996 17.0007 3.74547 17.0007 2.18636 16.5825C1.32532 16.352 0.648666 15.6754 0.418176 14.8143C0 13.2552 0 10.0003 0 10.0003C0 10.0003 0 6.74547 0.418176 5.18637C0.648666 4.32532 1.32532 3.64867 2.18636 3.41818C3.74547 3 9.99996 3 9.99996 3C9.99996 3 16.2545 3 17.8136 3.41818ZM13 10L8 13V7L13 10Z" fill="white"/>
</g>
</g>
</svg>
