<svg width="23" height="23" viewBox="0 0 23 23" fill="none" xmlns="http://www.w3.org/2000/svg">
<g id="Frame">
<g id="Vector">
<path d="M22.0324 3.09744L20.7788 1.81968C20.2604 1.29141 19.5706 1 18.8375 1C18.1041 1 17.4147 1.29108 16.8961 1.81973L1.8946 17.111L1.89362 17.1121C1.8831 17.1229 1.87313 17.1343 1.86347 17.146C1.86204 17.1478 1.86046 17.1494 1.85907 17.1511C1.84991 17.1626 1.84142 17.1746 1.83315 17.1869C1.83162 17.1892 1.82987 17.1913 1.82834 17.1937C1.82134 17.2044 1.81505 17.2157 1.80876 17.227C1.80642 17.2313 1.80382 17.2354 1.80162 17.2397C1.7969 17.2488 1.79277 17.2584 1.7885 17.2679C1.7854 17.2748 1.78207 17.2817 1.77924 17.2887C1.77619 17.2964 1.77367 17.3044 1.77093 17.3123C1.76775 17.3215 1.76447 17.3307 1.76177 17.3401L1.76002 17.3453L0.57274 21.6579L0.15407 22.0846C-0.0513567 22.294 -0.0513567 22.6335 0.15407 22.8429C0.256806 22.9477 0.391391 23 0.526021 23C0.660651 23 0.795236 22.9477 0.897972 22.8429L1.31664 22.4162L5.54745 21.2059L5.54992 21.205C5.56314 21.2011 5.57621 21.1966 5.58909 21.1916C5.5926 21.1903 5.59624 21.1892 5.59974 21.1878C5.61142 21.1831 5.62278 21.1775 5.63419 21.1719C5.63873 21.1697 5.64345 21.1678 5.6479 21.1654C5.65571 21.1613 5.66326 21.1564 5.67094 21.1518C5.67853 21.1474 5.68626 21.1431 5.69349 21.1383C5.6978 21.1354 5.70189 21.132 5.70616 21.129C5.7164 21.1218 5.7264 21.1143 5.73612 21.1065C5.73918 21.1039 5.74205 21.1011 5.74506 21.0984C5.75544 21.0894 5.76564 21.0803 5.77525 21.0706L5.77723 21.0687L14.3688 12.3111L14.3696 12.3104L20.7788 5.77732C21.2179 5.32973 21.4765 4.76698 21.5554 4.18348C21.8103 4.56202 21.9479 5.00934 21.9479 5.47846C21.9479 6.09149 21.7137 6.66784 21.2884 7.10129L15.8252 12.6703C15.6197 12.8797 15.6197 13.2192 15.8252 13.4286C15.8739 13.4785 15.9319 13.518 15.9958 13.545C16.0596 13.5719 16.128 13.5857 16.1971 13.5856C16.2662 13.5857 16.3346 13.5719 16.3985 13.545C16.4623 13.518 16.5203 13.4785 16.5691 13.4286L22.0323 7.85975C22.6563 7.22373 23 6.37808 23 5.47859C23 4.5791 22.6563 3.73341 22.0324 3.09744ZM1.80162 21.1637L2.5302 18.5171L4.39795 20.4209L1.80162 21.1637ZM5.40541 19.9314L3.0105 17.4901L10.8585 9.4905L13.2535 11.9317L5.40541 19.9314ZM20.0349 5.01914L13.9974 11.1734L11.6024 8.73213L17.64 2.57791C17.9598 2.25184 18.3852 2.0723 18.8375 2.0723C19.2896 2.0723 19.7147 2.25171 20.0345 2.57736L20.0365 2.57947C20.6952 3.25271 20.6948 4.34667 20.0349 5.01914Z" fill="black"/>
<path fill-rule="evenodd" clip-rule="evenodd" d="M21.7782 4.60212C21.8894 4.87632 21.9479 5.17275 21.9479 5.47846C21.9479 6.09149 21.7137 6.66784 21.2884 7.10129L15.8252 12.6703C15.6197 12.8797 15.6197 13.2192 15.8252 13.4286C15.8739 13.4785 15.9319 13.518 15.9958 13.545C16.0596 13.5719 16.128 13.5857 16.1971 13.5856C16.2662 13.5857 16.3346 13.5719 16.3985 13.545C16.4623 13.518 16.5203 13.4785 16.5691 13.4286L22.0323 7.85975C22.6563 7.22373 23 6.37808 23 5.47859C23 4.5791 22.6563 3.73341 22.0324 3.09744L20.7788 1.81968C20.2604 1.29141 19.5706 1 18.8375 1C18.1041 1 17.4147 1.29108 16.8961 1.81973L1.8946 17.111L1.89362 17.1121C1.8831 17.1229 1.87313 17.1343 1.86347 17.146L1.85907 17.1511C1.84991 17.1626 1.84142 17.1746 1.83315 17.1869L1.83054 17.1905L1.82834 17.1937C1.82134 17.2044 1.81505 17.2157 1.80876 17.227L1.80578 17.2322C1.80434 17.2347 1.80291 17.2371 1.80162 17.2397C1.79769 17.2473 1.79418 17.2552 1.79065 17.2631L1.7885 17.2679C1.78755 17.27 1.78658 17.2721 1.78561 17.2743C1.78341 17.279 1.78121 17.2838 1.77924 17.2887C1.77619 17.2964 1.77367 17.3044 1.77093 17.3123C1.76775 17.3215 1.76447 17.3307 1.76177 17.3401L1.76002 17.3453L0.57274 21.6579L0.15407 22.0846C-0.0513567 22.294 -0.0513567 22.6335 0.15407 22.8429C0.256806 22.9477 0.391391 23 0.526021 23C0.660651 23 0.795236 22.9477 0.897972 22.8429L1.31664 22.4162L5.54745 21.2059L5.54992 21.205C5.56314 21.2011 5.57621 21.1966 5.58909 21.1916C5.5926 21.1903 5.59624 21.1892 5.59974 21.1878C5.61142 21.1831 5.62278 21.1775 5.63419 21.1719C5.63873 21.1697 5.64345 21.1678 5.6479 21.1654C5.65341 21.1625 5.6588 21.1592 5.66419 21.1559C5.66644 21.1546 5.66868 21.1532 5.67094 21.1518C5.67298 21.1506 5.67503 21.1494 5.67707 21.1483C5.68265 21.145 5.6882 21.1418 5.69349 21.1383C5.69596 21.1366 5.69836 21.1348 5.70076 21.133C5.70255 21.1316 5.70434 21.1303 5.70616 21.129C5.7164 21.1218 5.7264 21.1143 5.73612 21.1065C5.73918 21.1039 5.74205 21.1011 5.74506 21.0984C5.75544 21.0894 5.76564 21.0803 5.77525 21.0706L5.77723 21.0687L14.3688 12.3111L20.7788 5.77732C21.1058 5.44399 21.3327 5.04678 21.4598 4.62471C21.5034 4.48003 21.5352 4.33243 21.5554 4.18348C21.6442 4.31534 21.7187 4.45556 21.7782 4.60212ZM5.56861 20.8489L14.1563 12.0953L14.1571 12.0945L20.5666 5.56109C20.9577 5.16249 21.1879 4.66179 21.2582 4.14176L21.364 3.35882L21.8027 4.01043C22.0919 4.43991 22.2479 4.94756 22.2479 5.47846C22.2479 6.17259 21.9821 6.82672 21.5005 7.31751L16.0373 12.8865C15.949 12.9765 15.949 13.1223 16.0373 13.2124C16.0582 13.2337 16.0833 13.2509 16.1106 13.2624C16.1379 13.274 16.1672 13.2799 16.1967 13.2799C16.2263 13.2799 16.2564 13.274 16.2837 13.2625C16.311 13.2509 16.3358 13.234 16.3566 13.2127L21.8202 7.64352C22.3879 7.06484 22.7 6.29697 22.7 5.47859C22.7 4.6602 22.388 3.8923 21.8203 3.31368L20.5827 2.05219L20.5662 2.0355C20.104 1.56454 19.491 1.3058 18.8375 1.3058C18.1837 1.3058 17.5705 1.56466 17.1082 2.03595L2.11348 17.3203L2.11271 17.3212L2.1062 17.3279C2.10356 17.3306 2.09941 17.3352 2.09283 17.3431L2.08958 17.347C2.08748 17.3498 2.08457 17.3539 2.08047 17.3599L2.07703 17.3649L2.07651 17.3658L2.07061 17.3763L2.07 17.3774L2.06646 17.3836L2.06479 17.3873L2.06138 17.395L2.05789 17.4026L2.05726 17.404L2.05654 17.4061L2.0538 17.4141L2.05142 17.421L2.04995 17.4253L2.04948 17.4267L2.04853 17.43L2.04705 17.4345L0.840373 21.8175L0.366201 22.3008C0.277952 22.3908 0.277912 22.5367 0.366201 22.6267C0.410427 22.6718 0.467718 22.6942 0.526021 22.6942C0.584324 22.6942 0.641615 22.6718 0.685841 22.6267L1.16001 22.1434L5.45784 20.9139L5.46543 20.9116C5.47123 20.9099 5.47697 20.9079 5.48262 20.9057L5.48454 20.905L5.49167 20.9024L5.50431 20.8963L5.50542 20.8957L5.51009 20.8936L5.51124 20.8929L5.5195 20.8879L5.52045 20.8873L5.52822 20.8828L5.53499 20.8779L5.53674 20.8766C5.53948 20.8747 5.54217 20.8727 5.54481 20.8707L5.54871 20.8672L5.55096 20.8652C5.55833 20.8589 5.56179 20.8556 5.56348 20.854L5.56497 20.8524M5.53889 20.8761L5.54071 20.8745L5.53889 20.8761ZM2.07327 17.3702L2.07209 17.3719L2.07136 17.3729L2.07327 17.3702ZM1.36848 21.6052L2.37986 17.9314L4.97255 20.5742L1.36848 21.6052ZM5.40541 20.3638L2.58624 17.4901L10.8585 9.05804L13.6778 11.9317L5.40541 20.3638ZM13.9974 11.6058L11.1782 8.73213L17.4279 2.36171C17.804 1.97827 18.3056 1.76651 18.8375 1.76651C19.3686 1.76651 19.8695 1.97768 20.2454 2.3599L20.2472 2.36163L20.2584 2.37313C21.0238 3.16662 21.0206 4.44701 20.2471 5.23538L13.9974 11.6058ZM20.0349 5.01914C20.6948 4.34667 20.6952 3.25271 20.0365 2.57947L20.0345 2.57736C19.7147 2.25171 19.2896 2.0723 18.8375 2.0723C18.3852 2.0723 17.9598 2.25184 17.64 2.57791L11.6024 8.73213L13.9974 11.1734L20.0349 5.01914ZM1.80162 21.1637L4.39795 20.4209L2.5302 18.5171L1.80162 21.1637ZM5.40541 19.9314L3.0105 17.4901L10.8585 9.4905L13.2535 11.9317L5.40541 19.9314Z" fill="black"/>
</g>
</g>
</svg>
