<svg width="24" height="24" viewBox="0 0 24 24" fill="none" xmlns="http://www.w3.org/2000/svg">
<g id="Group">
<g id="Vector">
<path d="M22.7327 3.9941C22.7098 3.92469 22.6696 3.86229 22.6158 3.81284C22.5619 3.7634 22.4964 3.72855 22.4253 3.71163C22.3542 3.69471 22.2799 3.69626 22.2096 3.71616C22.1393 3.73606 22.0752 3.77363 22.0235 3.82529L19.6026 6.24592L18.1466 5.85583L17.7565 4.40011L20.1775 1.97948C20.2291 1.9278 20.2667 1.86374 20.2866 1.79343C20.3065 1.72311 20.3081 1.64887 20.2911 1.57778C20.2742 1.50669 20.2393 1.44112 20.1899 1.38732C20.1404 1.33352 20.078 1.29327 20.0086 1.27042C16.8038 0.177616 13.6517 3.22124 14.5282 6.41772L6.40008 14.5448C4.95049 14.1603 3.34303 14.5873 2.28868 15.6601C0.628412 17.253 0.628498 20.119 2.28868 21.7117C3.88176 23.3718 6.7481 23.3717 8.3411 21.7117C9.41398 20.6577 9.84114 19.0501 9.45656 17.6009L17.5825 9.47603C20.8345 10.3414 23.8077 7.1902 22.7327 3.9941ZM7.73586 21.1066C5.59506 23.2545 1.88575 21.7182 1.89118 18.6859C1.85327 16.846 3.47455 15.2246 5.31495 15.2627C8.34765 15.2574 9.8841 18.9663 7.73586 21.1066ZM9.12146 16.7256C8.92087 16.3373 8.65908 15.9781 8.3411 15.6601C8.02311 15.3422 7.66387 15.0804 7.27545 14.8799L14.8624 7.29392C15.2512 8.06344 15.9341 8.74798 16.707 9.14093L9.12146 16.7256ZM21.0888 7.75556C19.8143 9.08346 17.5212 9.08372 16.2467 7.75551C13.9784 5.48731 15.8475 1.59226 19.0184 1.92813L16.9766 3.96967C16.9235 4.02279 16.8852 4.08895 16.8658 4.16151C16.8464 4.23407 16.8464 4.31047 16.8658 4.38303L17.3838 6.31601C17.4033 6.38856 17.4415 6.45472 17.4946 6.50784C17.5477 6.56095 17.6139 6.59915 17.6865 6.61859L19.6197 7.13654C19.6922 7.15599 19.7687 7.156 19.8412 7.13656C19.9138 7.11712 19.9799 7.07892 20.0331 7.02579L22.0749 4.98421C22.1813 5.99824 21.8308 7.01364 21.0888 7.75556Z" fill="white"/>
<path fill-rule="evenodd" clip-rule="evenodd" d="M20.1775 1.97948L17.7565 4.40011L18.1466 5.85583L19.6026 6.24592L22.0235 3.82529C22.0752 3.77363 22.1393 3.73606 22.2096 3.71616C22.2799 3.69626 22.3542 3.69471 22.4253 3.71163C22.4964 3.72855 22.5619 3.7634 22.6158 3.81284C22.6696 3.86229 22.7098 3.92469 22.7327 3.9941C23.8077 7.1902 20.8345 10.3414 17.5825 9.47603L9.45656 17.6009C9.84114 19.0501 9.41398 20.6577 8.3411 21.7117C6.7481 23.3717 3.88176 23.3718 2.28868 21.7117C0.628498 20.119 0.628412 17.253 2.28868 15.6601C3.34303 14.5873 4.95049 14.1603 6.40008 14.5448L14.5282 6.41772C13.6517 3.22124 16.8038 0.177616 20.0086 1.27042C20.078 1.29327 20.1404 1.33352 20.1899 1.38732C20.2393 1.44112 20.2742 1.50669 20.2911 1.57778C20.3081 1.64887 20.3065 1.72311 20.2866 1.79343C20.2667 1.86374 20.2291 1.9278 20.1775 1.97948ZM20.1082 0.97366C16.7224 -0.179741 13.4017 2.95397 14.1812 6.32201L6.30307 14.1991C4.7958 13.8653 3.16031 14.329 2.06865 15.4374C0.284808 17.1526 0.284458 20.2174 2.0673 21.9332C3.78339 23.7158 6.84843 23.7153 8.56375 21.9318C9.67225 20.8405 10.1362 19.2049 9.80228 17.6979L17.6791 9.82207C21.1001 10.5931 24.1643 7.27084 23.0297 3.89523C22.9901 3.77542 22.9205 3.66772 22.8276 3.58233C22.7344 3.49672 22.6208 3.43639 22.4978 3.40709C22.3747 3.37779 22.2461 3.3805 22.1244 3.41494C22.0026 3.44938 21.8917 3.51443 21.8022 3.60387L19.509 5.89677L18.4022 5.60022L18.1057 4.49367L20.3988 2.20085C20.4883 2.11136 20.5534 2.00042 20.5878 1.87866C20.6223 1.7569 20.625 1.62835 20.5956 1.50525C20.5663 1.38215 20.506 1.26862 20.4203 1.17546C20.3351 1.08277 20.2277 1.01332 20.1082 0.97366ZM7.51414 20.8856L7.51491 20.8848C9.46513 18.9418 8.06887 15.5709 5.3155 15.5757L5.30847 15.5757C3.646 15.5413 2.16991 17.0174 2.20416 18.6795L2.20431 18.6865C2.19937 21.4392 5.57051 22.8357 7.51414 20.8856ZM20.8674 7.53418C21.3626 7.03914 21.6655 6.4111 21.7536 5.74812L20.2544 7.24712C20.1625 7.33912 20.0479 7.40528 19.9222 7.43894C19.7966 7.4726 19.6643 7.47259 19.5387 7.43891C19.5386 7.43891 19.5387 7.43892 19.5387 7.43891L17.6054 6.92097C17.4798 6.88731 17.3652 6.82117 17.2733 6.72921C17.1813 6.63724 17.1151 6.52268 17.0815 6.39704L16.5634 4.46409C16.5634 4.46408 16.5634 4.46409 16.5634 4.46409C16.5298 4.33845 16.5298 4.20614 16.5634 4.08049C16.5971 3.95484 16.6632 3.84027 16.7552 3.7483L16.9766 3.96967C16.9235 4.02279 16.8852 4.08895 16.8658 4.16151C16.8464 4.23407 16.8464 4.31047 16.8658 4.38303L17.3838 6.31601C17.4033 6.38856 17.4415 6.45472 17.4946 6.50784C17.5477 6.56095 17.6139 6.59915 17.6865 6.61859L19.6197 7.13654C19.6922 7.15599 19.7687 7.156 19.8412 7.13656C19.9138 7.11712 19.9799 7.07892 20.0331 7.02579L22.0749 4.98421C22.0898 5.12599 22.0957 5.2678 22.0929 5.40888C22.0756 6.27684 21.7271 7.11737 21.0888 7.75556C19.8143 9.08346 17.5212 9.08372 16.2467 7.75551C14.0811 5.59005 15.6867 1.94177 18.5958 1.90799C18.7338 1.90638 18.8748 1.91292 19.0184 1.92813L16.9766 3.96967L16.7552 3.7483L18.2597 2.24408C15.8397 2.54216 14.5884 5.65456 16.4681 7.53415L16.4726 7.53873C17.6239 8.7385 19.7116 8.73835 20.8629 7.53879L20.8674 7.53418ZM1.89118 18.6859C1.85327 16.846 3.47455 15.2246 5.31495 15.2627C8.34765 15.2574 9.8841 18.9663 7.73586 21.1066C5.59506 23.2545 1.88575 21.7182 1.89118 18.6859ZM8.96143 16.4429C9.01847 16.5352 9.07184 16.6295 9.12146 16.7256L16.707 9.14093C16.6111 9.09215 16.5165 9.03888 16.4237 8.98151C15.8624 8.6344 15.3661 8.13728 15.0213 7.57768C14.964 7.48469 14.9109 7.38997 14.8624 7.29392L7.27545 14.8799C7.37153 14.9295 7.46583 14.9828 7.55817 15.0399C7.83908 15.2134 8.10177 15.4208 8.3411 15.6601C8.58041 15.8994 8.7879 16.1621 8.96143 16.4429ZM9.18845 16.2159L16.1967 9.20847C15.6407 8.85155 15.1492 8.35946 14.7942 7.80471L7.7852 14.8129C8.06328 14.9909 8.32383 15.2002 8.56244 15.4388C8.80106 15.6773 9.0104 15.9379 9.18845 16.2159Z" fill="white"/>
</g>
</g>
</svg>
