<svg width="64" height="64" viewBox="0 0 64 64" fill="none" xmlns="http://www.w3.org/2000/svg">
<path d="M32.0005 41.8329C37.4314 41.8329 41.834 37.4303 41.834 31.9995C41.834 26.5686 37.4314 22.166 32.0005 22.166C26.5696 22.166 22.1671 26.5686 22.1671 31.9995C22.1671 37.4303 26.5696 41.8329 32.0005 41.8329Z" stroke="white" stroke-width="2.4" stroke-linecap="square"/>
<path d="M50.1436 49.9079L48.9758 41.8006L56.5805 38.7583V25.2415L48.9785 22.2003L50.1464 14.0915L38.4405 7.33301L32.0017 12.3991L25.5629 7.33301L13.857 14.0915L15.0247 22.1989L7.41928 25.2415V38.7583L15.0274 41.802L13.8599 49.9079L25.5658 56.6663L32.0017 51.6025L38.4376 56.6663L50.1436 49.9079Z" stroke="white" stroke-width="2.4" stroke-linecap="square"/>
</svg>
