<svg width="80" height="80" viewBox="0 0 80 80" fill="none" xmlns="http://www.w3.org/2000/svg">
<path fill-rule="evenodd" clip-rule="evenodd" d="M20.7292 47.7085C27.1142 47.7085 32.2917 52.8847 32.2917 59.271C32.2917 65.656 27.1142 70.8335 20.7292 70.8335C14.3429 70.8335 9.16669 65.656 9.16669 59.271C9.16669 52.886 14.3442 47.7085 20.7292 47.7085Z" stroke="#4B23EB" stroke-width="2.2" stroke-linecap="round" stroke-linejoin="round"/>
<path fill-rule="evenodd" clip-rule="evenodd" d="M59.2708 47.7085C65.6558 47.7085 70.8333 52.8847 70.8333 59.271C70.8333 65.656 65.6558 70.8335 59.2708 70.8335C52.8846 70.8335 47.7083 65.656 47.7083 59.271C47.7083 52.886 52.8858 47.7085 59.2708 47.7085Z" stroke="#4B23EB" stroke-width="2.2" stroke-linecap="round" stroke-linejoin="round"/>
<path fill-rule="evenodd" clip-rule="evenodd" d="M40 9.1665C46.385 9.1665 51.5625 14.3428 51.5625 20.729C51.5625 27.114 46.385 32.2915 40 32.2915C33.6137 32.2915 28.4375 27.114 28.4375 20.729C28.4375 14.344 33.615 9.1665 40 9.1665Z" stroke="#4B23EB" stroke-width="2.2" stroke-linecap="round" stroke-linejoin="round"/>
</svg>
